<?xml version="1.0" encoding="UTF-8" standalone="no"?>
<!-- Created with Inkscape (http://www.inkscape.org/) -->

<svg
   width="137.6976mm"
   height="149.55939mm"
   viewBox="0 0 137.6976 149.55939"
   version="1.1"
   id="svg5"
   sodipodi:docname="rust-cog-fist.svg"
   inkscape:version="1.1 (c4e8f9e, 2021-05-24)"
   xmlns:inkscape="http://www.inkscape.org/namespaces/inkscape"
   xmlns:sodipodi="http://sodipodi.sourceforge.net/DTD/sodipodi-0.dtd"
   xmlns="http://www.w3.org/2000/svg"
   xmlns:svg="http://www.w3.org/2000/svg">
  <sodipodi:namedview
     id="namedview7"
     pagecolor="#505050"
     bordercolor="#ffffff"
     borderopacity="1"
     inkscape:pageshadow="0"
     inkscape:pageopacity="0"
     inkscape:pagecheckerboard="1"
     inkscape:document-units="mm"
     showgrid="false"
     inkscape:zoom="0.54866744"
     inkscape:cx="164.03379"
     inkscape:cy="363.60823"
     inkscape:window-width="2560"
     inkscape:window-height="1387"
     inkscape:window-x="0"
     inkscape:window-y="0"
     inkscape:window-maximized="1"
     inkscape:current-layer="layer1"
     fit-margin-top="5"
     fit-margin-left="5"
     fit-margin-right="5"
     fit-margin-bottom="5"
     lock-margins="true" />
  <defs
     id="defs2" />
  <g
     inkscape:label="Layer 1"
     inkscape:groupmode="layer"
     id="layer1"
     transform="translate(-11.730275,-68.7497)">
    <path
       id="path67"
       style="stroke-width:1.22001"
       d="m 80.583054,85.615098 c -0.603865,0 -1.207826,0.29126 -1.568444,0.873541 l -3.318307,5.362345 c -0.522175,0.04272 -1.044323,0.09512 -1.562838,0.152452 l -4.298006,-4.610397 c -0.9341,-1.005231 -2.600054,-0.67313 -3.077034,0.613535 l -2.202079,5.890304 c -0.509967,0.146405 -1.014997,0.301084 -1.518873,0.459679 l -5.104678,-3.673242 c -1.112944,-0.797405 -2.67611,-0.150319 -2.899794,1.20041 l -1.012894,6.211093 c -0.468487,0.242795 -0.932092,0.492773 -1.394481,0.74775 l -5.726631,-2.610787 c -0.581264,-0.266044 -1.259314,-0.210813 -1.7901,0.145429 -0.531932,0.353811 -0.842754,0.960284 -0.818358,1.598371 l 0.219785,6.302289 c -0.407486,0.32575 -0.811755,0.65886 -1.210693,0.9956 l -6.137687,-1.44687 c -0.622498,-0.14569 -1.27618,0.04 -1.72884,0.49148 -0.452939,0.4518 -0.638878,1.10637 -0.491483,1.72883 l 1.445459,6.13909 c -0.336325,0.39822 -0.667072,0.80094 -0.992779,1.2079 l -6.30276,-0.21932 c -1.371259,-0.0502 -2.314556,1.36175 -1.743342,2.60938 l 2.610793,5.72805 c -0.255837,0.46129 -0.505487,0.92615 -0.748208,1.39448 l -6.209702,1.01008 c -1.352782,0.22108 -2.001118,1.7877 -1.200416,2.90025 l 3.673271,5.10188 c -0.159828,0.50386 -0.314687,1.0103 -0.461092,1.52028 l -5.890297,2.20208 c -1.287015,0.4778 -1.618008,2.14467 -0.611211,3.07796 l 4.608053,4.29707 c -0.05735,0.51846 -0.108509,1.04095 -0.152441,1.5619 l -5.360945,3.31832 c -1.167636,0.71956 -1.167636,2.41685 0,3.13641 l 5.360945,3.31879 c 0.04384,0.52217 0.09511,1.04292 0.152441,1.56143 l -4.608053,4.29801 c -1.002222,0.93434 -0.672049,2.5967 0.611211,3.07703 l 5.890297,2.20208 c 0.146405,0.50997 0.301264,1.0164 0.461092,1.52026 l -3.673271,5.10328 c -0.802777,1.11241 -0.152551,2.68074 1.20183,2.89887 l 6.208288,1.01009 c 0.242782,0.47091 0.49201,0.93443 0.748208,1.39682 l -2.610793,5.72569 c -0.265765,0.58172 -0.211025,1.25972 0.144978,1.79104 0.356242,0.53315 0.962722,0.84445 1.598364,0.81883 l 6.299947,-0.22119 c 0.328186,0.40993 0.658857,0.81174 0.995592,1.2107 l -1.445459,6.14001 c -0.146405,0.62221 0.03762,1.27247 0.491483,1.7251 0.450195,0.45506 1.105399,0.63695 1.72884,0.49053 l 6.137687,-1.44544 c 0.398938,0.33917 0.803207,0.66827 1.210693,0.99279 l -0.219785,6.30416 c -0.05018,1.37066 1.361543,2.31322 2.608458,1.74192 l 5.726631,-2.60938 c 0.461167,0.25621 0.924772,0.50495 1.394481,0.74773 l 1.012894,6.20736 c 0.222209,1.35174 1.786037,2.00081 2.899794,1.20324 l 5.102336,-3.67608 c 0.504566,0.16111 1.010989,0.31537 1.519815,0.46249 l 2.202079,5.8875 c 0.223261,0.59782 0.740922,1.04101 1.369224,1.16301 0.626541,0.12644 1.273476,-0.0829 1.707796,-0.5518 l 4.29802,-4.60807 c 0.518515,0.0598 1.040656,0.10985 1.562825,0.1562 l 3.318791,5.36094 c 0.721961,1.16324 2.414401,1.16324 3.13641,0 l 3.318791,-5.36094 c 0.521206,-0.0451 1.041592,-0.0973 1.561425,-0.1562 l 4.297074,4.60807 c 0.435563,0.46849 1.081925,0.67868 1.707803,0.5518 0.627244,-0.1234 1.145486,-0.56392 1.36876,-1.16301 l 2.20255,-5.8875 c 0.508813,-0.14712 1.015242,-0.30138 1.519808,-0.46249 l 5.103278,3.67608 c 1.1132,0.79953 2.67884,0.14956 2.89885,-1.20324 l 1.0129,-6.20736 c 0.46848,-0.24278 0.93209,-0.49519 1.39449,-0.74773 l 5.72662,2.60938 c 1.24693,0.5713 2.65865,-0.37126 2.60846,-1.74192 l -0.21978,-6.30416 c 0.40748,-0.32575 0.81155,-0.65362 1.20928,-0.99279 l 6.13769,1.44544 c 0.62197,0.14875 1.27686,-0.0371 1.72791,-0.49053 0.45387,-0.45263 0.63787,-1.10289 0.49147,-1.7251 l -1.44591,-6.14001 c 0.33672,-0.39896 0.66873,-0.80077 0.99325,-1.2107 l 6.30276,0.22119 c 0.63894,0.024 1.24449,-0.2863 1.59837,-0.81883 0.35625,-0.53193 0.41074,-1.2091 0.14356,-1.79104 l -2.60939,-5.72569 c 0.25498,-0.46239 0.50523,-0.92591 0.74681,-1.39682 l 6.20969,-1.01009 c 1.35386,-0.21889 2.0031,-1.78687 1.20042,-2.89887 l -3.67325,-5.10328 c 0.1586,-0.50386 0.31345,-1.01029 0.46107,-1.52026 l 5.8889,-2.20208 c 0.59905,-0.22449 1.04101,-0.74044 1.16302,-1.36875 0.12641,-0.62656 -0.0829,-1.27395 -0.55181,-1.70828 l -4.60665,-4.29801 c 0.0561,-0.51851 0.1073,-1.04048 0.15243,-1.56143 l 5.36095,-3.31879 c 1.16785,-0.71923 1.1684,-2.4165 6.8e-4,-3.13641 l -5.36048,-3.31832 c -0.0452,-0.52108 -0.096,-1.04197 -0.15245,-1.5619 l 4.60666,-4.29707 c 0.4685,-0.43676 0.6782,-1.08332 0.55134,-1.7092 -0.12296,-0.62751 -0.56318,-1.14588 -1.16253,-1.36876 l -5.88891,-2.20208 c -0.14784,-0.50849 -0.30196,-1.01535 -0.46155,-1.52028 l 3.67372,-5.10188 c 0.80238,-1.11236 0.15342,-2.68047 -1.20041,-2.90025 l -6.21017,-1.01008 c -0.24184,-0.46857 -0.49044,-0.93345 -0.74634,-1.39448 l 2.60939,-5.72805 c 0.2671,-0.58133 0.2125,-1.2598 -0.14403,-1.79103 -0.3537,-0.53267 -0.95937,-0.84261 -1.59837,-0.81835 l -6.30229,0.21932 c -0.32549,-0.40781 -0.65743,-0.81053 -0.99559,-1.2079 l 1.44826,-6.13909 c 0.31627,-1.33508 -0.88405,-2.53586 -2.21938,-2.22031 l -6.13815,1.44687 c -0.3985,-0.33781 -0.80193,-0.66975 -1.21024,-0.9956 l 0.2212,-6.302289 c 0.0511,-1.371191 -1.36104,-2.31543 -2.60847,-1.7438 l -5.7271,2.610787 c -0.46184,-0.254813 -0.9267,-0.503999 -1.39448,-0.74775 l -1.01243,-6.211093 c -0.2215,-1.351781 -1.78645,-1.999773 -2.89884,-1.20041 l -5.10563,3.673242 c -0.503705,-0.160471 -1.009882,-0.313523 -1.517923,-0.459679 l -2.202086,-5.890304 c -0.475888,-1.287951 -2.143454,-1.620386 -3.077034,-0.613535 l -4.296603,4.610397 c -0.518508,-0.0574 -1.04095,-0.109764 -1.561896,-0.152452 l -3.31832,-5.362345 C 81.79064,85.906358 81.186659,85.615098 80.582794,85.615098 Z m -0.115502,11.29287 c 0.970307,0.02233 1.932476,0.41516 2.65523,1.173296 1.44651,1.517965 1.390145,3.920716 -0.125812,5.369366 -1.513404,1.44922 -3.916402,1.39356 -5.360932,-0.1244 -1.445029,-1.51807 -1.388698,-3.919154 0.125791,-5.367965 0.756811,-0.724125 1.735408,-1.072597 2.705723,-1.050297 z m 8.71247,6.249902 c 13.689878,2.54865 25.280278,11.07056 31.959888,22.76204 l -4.4729,10.1018 c -0.77261,1.74724 0.0141,3.79028 1.75925,4.56784 l 8.61098,3.82475 c 0.14884,1.52869 0.22679,3.07318 0.22679,4.63847 -0.0486,14.00362 -4.22488,23.04809 -13.39063,32.71887 l -8.02177,-1.72416 c -1.86841,-0.40075 -3.70739,0.7909 -4.10536,2.65988 l -1.903262,8.88176 c -6.051279,2.74301 -12.620193,4.15669 -19.26414,4.1465 -6.793738,0.009 -13.507115,-1.47062 -19.668161,-4.33356 l -1.901867,-8.88174 c -0.397947,-1.86832 -2.236232,-3.05878 -4.103938,-2.65803 l -7.841278,1.68348 c -1.457257,-1.50002 -2.811542,-3.09648 -4.05391,-4.77874 -7.194382,-10.22999 -8.994192,-19.43759 -9.115101,-27.7143 0,-1.69459 0.09181,-3.36955 0.267485,-5.01536 l 8.152025,-5.09848 c 1.746162,-0.77651 1.911344,-3.1475 0.746897,-4.85576 l -5.262603,-8.05943 c 10.574674,-15.57355 20.245571,-20.27047 34.121761,-22.85462 l 5.83933,6.12552 c 1.317618,1.38288 3.507523,1.43319 4.887235,0.11223 z m -54.102786,28.07622 c 1.478076,-0.0252 2.897971,0.82115 3.532971,2.25866 0.84935,1.91633 -0.01393,4.1586 -1.928994,5.01068 -1.915223,0.84992 -4.156555,-0.016 -5.003202,-1.93272 -0.849432,-1.91633 0.01331,-4.15858 1.928523,-5.01068 0.478804,-0.21246 0.978003,-0.31753 1.470702,-0.32594 z m 90.601064,0.18518 c 0.49253,0.008 0.99159,0.11391 1.47023,0.32641 1.91515,0.85209 2.77796,3.09435 1.92853,5.01068 -0.84615,1.9172 -3.08797,2.7829 -5.00321,1.93226 -1.91378,-0.85406 -2.77581,-3.09524 -1.92758,-5.01161 0.63494,-1.43703 2.05437,-2.28316 3.53203,-2.25774 z m -73.315482,53.25355 c 4.15775,0.034 5.232423,6.43118 0.720152,7.50926 -2.0486,0.44003 -4.065347,-0.86562 -4.502835,-2.91476 -0.440581,-2.04971 0.862002,-4.06928 2.911012,-4.51311 0.303851,-0.0578 0.594483,-0.0836 0.871671,-0.0814 z m 56.137452,0.18145 c 0.25202,0.002 0.50768,0.0305 0.76364,0.0856 2.04901,0.44152 3.35279,2.46015 2.91242,4.50938 -0.43878,2.04858 -2.4542,3.35429 -4.5033,2.91803 -2.04892,-0.4438 -3.35097,-2.4632 -2.90961,-4.51266 0.38126,-1.79306 1.97276,-3.01754 3.73685,-3.00033 z"
       sodipodi:nodetypes="scccccccccccccccccscccccccccccccccccccccccccccccccccccccccccccccccccccccccccccccccccccccccccccccccccccccccccccccccccccccccccccccccccccccccccsssccccscccccccccccccccccccccccccsccccssccccsscccssccccs" />
    <path
       style="fill:#000000;stroke-width:0.180656"
       d="m 74.932411,196.21541 c 0.0027,-0.62868 0.226518,-2.99311 0.438034,-4.63178 0.0979,-0.75843 0.280432,-1.11112 0.283101,-0.54703 0.0027,0.52719 0.539081,4.97545 0.65672,5.44415 0.09511,0.37898 0.04377,0.41213 -0.638776,0.41213 -0.737781,0 -0.742192,-0.004 -0.739079,-0.67747 z m 7.454938,0.074 c -0.02158,-0.28225 -0.248586,-1.90816 -0.504525,-3.61314 -0.991775,-6.60685 -0.984885,-6.44209 -0.269254,-6.44209 0.52266,0 0.54197,-0.0292 0.54197,-0.82078 0,-1.33971 -0.868927,-3.86138 -0.915514,-2.65686 -0.0338,0.87377 -0.395933,-0.80393 -1.160125,-5.37453 -0.456852,-2.73242 -0.935642,-5.56855 -1.063974,-6.30249 -0.128324,-0.73394 -0.198966,-1.51415 -0.156981,-1.7338 0.04199,-0.21965 -0.09335,-0.94876 -0.300751,-1.62025 -0.207406,-0.6715 -0.376562,-1.67979 -0.375907,-2.24065 l 0.0014,-1.01974 0.31496,0.46503 c 0.173225,0.25578 0.66718,0.8787 1.097683,1.38427 1.382717,1.62385 3.587083,2.16786 4.97307,1.2273 l 0.65743,-0.44619 v 0.44619 c 0,0.24541 0.07533,0.4462 0.167415,0.4462 0.310576,0 0.290844,0.62568 -0.02984,0.94637 -0.424092,0.42409 -0.402256,0.61193 0.133418,1.1476 0.248401,0.2484 0.451642,0.60574 0.451642,0.79408 0,0.18834 0.09352,0.40024 0.207816,0.47088 0.150693,0.0931 0.176503,0.95269 0.09389,3.12698 -0.0794,2.08953 -0.03448,3.76528 0.148146,5.52774 0.306829,2.96107 0.331088,3.66007 0.118814,3.42344 -0.08468,-0.0944 -0.448508,-2.19794 -0.808513,-4.67455 -0.359997,-2.47661 -0.748228,-4.5903 -0.862726,-4.69707 -0.29434,-0.27449 -0.06829,5.14013 0.293295,7.02532 0.201903,1.05264 0.226299,1.58075 0.09095,1.96901 -0.101723,0.29182 -0.184955,1.12815 -0.184955,1.85853 0,1.21437 0.03141,1.32797 0.366982,1.32797 0.201841,0 0.411118,0.14226 0.465059,0.31614 0.05394,0.17389 0.376576,0.98232 0.716957,1.79653 0.340387,0.81421 0.618879,1.63448 0.618879,1.82283 0,0.33698 0.365658,1.79481 1.074612,4.28437 0.453772,1.59345 0.453588,1.71623 -0.0027,1.71623 -0.205255,0 -0.530689,0.0843 -0.72319,0.18732 -0.1925,0.10302 -1.426914,0.24528 -2.743133,0.31614 l -2.393138,0.12884 z m -14.827335,-1.47384 c 0.07546,-0.91001 0.223219,-1.35033 0.389057,-1.15942 0.03598,0.0414 0.111384,0.54272 0.167606,1.11405 0.09449,0.96025 0.0742,1.03877 -0.268414,1.03877 -0.33879,0 -0.363555,-0.0853 -0.288249,-0.9934 z m 24.468578,-0.4308 c -0.0592,-0.45871 -0.158361,-1.12143 -0.220317,-1.47273 l -0.112648,-0.63872 0.771491,0.0736 c 0.854581,0.0815 1.250432,-0.23461 1.250432,-0.99853 0,-0.57886 0.328848,-0.52355 0.473833,0.0797 0.228914,0.95243 0.775137,1.82439 1.180158,1.88394 0.217389,0.032 0.429035,0.16068 0.470324,0.28604 0.08632,0.26207 -0.9934,0.77238 -1.347061,0.63666 -0.129404,-0.0496 -0.235285,-0.0102 -0.235285,0.0878 0,0.1695 -0.275945,0.29568 -1.558434,0.71267 l -0.564823,0.18363 z m -31.461495,-1.28431 c -0.702666,-0.21003 -2.895929,-1.29601 -3.431521,-1.69909 -0.298608,-0.22472 -0.477712,0.12672 -1.20717,-0.20719 -0.729465,-0.3339 3.158437,2.37779 0.936994,-0.90979 -0.317746,-0.47025 -0.07636,-0.94443 -0.189817,-0.94443 -0.11346,0 -0.249815,-3.09702 -0.310563,-3.41995 -0.06077,-0.32292 -4.344372,-1.63719 -4.83141,-2.58112 -1.455783,-2.82141 -3.790836,-3.45819 -6.083446,-7.9125 -1.192859,-2.31761 -2.115541,-4.26713 -2.050403,-4.33227 0.06514,-0.0651 0.808417,0.23488 1.651725,0.6667 0.843314,0.43182 1.56671,0.75172 1.607541,0.71089 0.04083,-0.0408 -0.03578,-0.28636 -0.170303,-0.54561 -0.134497,-0.25925 -0.710258,-1.51561 -1.279464,-2.79192 -0.569213,-1.27631 -1.390999,-3.07915 -1.8262,-4.00631 -0.435207,-0.92716 -0.791278,-1.71801 -0.791278,-1.75744 0,-0.0395 -0.284535,-0.67944 -0.632297,-1.42223 -0.593657,-1.26799 -0.740813,-1.72855 -0.5523,-1.72855 0.116963,0 1.439785,0.77731 1.545912,0.90839 0.105184,0.12993 0.722623,0.37349 0.722623,0.28505 0,-0.0329 -0.250948,-0.66038 -0.55766,-1.39442 -0.306712,-0.73403 -1.029205,-2.47274 -1.605533,-3.86379 -0.576335,-1.39105 -1.62612,-3.90443 -2.332861,-5.58528 -1.147282,-2.72859 -1.414235,-3.59513 -0.947066,-3.07418 0.08317,0.0927 1.776697,2.64812 3.763401,5.67863 8.154592,12.43899 7.58105,11.4975 6.872458,11.28132 -0.22294,-0.068 -0.750584,-0.27849 -1.172552,-0.46771 -1.335126,-0.59871 -1.671655,-0.70098 -1.671655,-0.50801 0,0.0989 1.739266,3.26745 3.865028,7.04113 2.125756,3.77368 3.783243,6.86123 3.683289,6.86123 -0.09996,0 -0.953853,-0.28919 -1.897559,-0.64265 -0.943706,-0.35346 -1.751378,-0.6071 -1.794838,-0.56364 -0.04343,0.0434 0.06705,0.32663 0.245581,0.62926 0.178517,0.30264 0.974944,1.65293 1.769834,3.00065 0.794891,1.34772 1.491889,2.45123 1.548882,2.45225 0.05701,0.001 0.236889,-0.66883 0.39975,-1.48856 0.162867,-0.81973 0.546428,-2.62855 0.852355,-4.0196 1.764863,-8.02481 2.147236,-12.77689 1.437483,-17.86484 -0.183003,-1.31182 -0.782757,-3.88593 -1.057016,-4.53657 -0.08376,-0.19872 -0.33134,-0.84908 -0.550169,-1.44524 -0.21883,-0.59617 -0.472734,-1.20589 -0.564243,-1.35493 -0.0915,-0.14904 -0.341323,-0.59616 -0.555167,-0.99361 -1.054313,-1.95953 -3.392076,-4.3359 -6.750907,-6.8624 -4.431326,-3.33322 -6.591993,-5.78974 -8.026629,-9.12569 -0.235012,-0.54649 -0.577878,-1.33823 -0.761912,-1.75943 -0.18404,-0.4212 -0.334611,-0.87324 -0.334611,-1.00452 0,-0.30897 -0.679655,-2.0024 -1.537158,-3.83001 -1.260421,-2.68634 -1.358163,-2.92339 -1.608797,-3.90142 -0.137604,-0.53697 -0.292803,-1.30148 -0.344887,-1.69893 -0.0521,-0.39744 -0.143483,-0.92587 -0.203125,-1.17427 -0.495437,-2.06364 -0.59914,-4.93172 -0.205733,-5.69001 0.145497,-0.28045 0.316503,-0.81746 0.38001,-1.19334 0.0635,-0.37588 0.231051,-0.77935 0.372322,-0.8966 0.141277,-0.11724 0.256861,-0.30896 0.256861,-0.42602 0,-0.31503 0.430469,-1.18512 0.587136,-1.18675 0.07452,-6.9e-4 0.135494,-0.0892 0.135494,-0.19662 0,-0.10736 0.274395,-0.61545 0.609778,-1.1291 1.346248,-2.06183 2.972143,-4.90573 4.745166,-8.29989 2.938638,-5.625552 4.486454,-7.636495 7.25412,-9.424656 l 1.318036,-0.851571 2.087041,-0.03105 2.087041,-0.03105 0.582664,-1.535579 c 0.746583,-1.967613 1.930032,-4.345306 2.10803,-4.235297 0.239279,0.14788 -0.378467,1.849393 -0.909436,2.50495 -0.154667,0.190963 -0.184137,0.290587 -0.06548,0.221389 0.152011,-0.08865 0.232055,0.128974 0.270982,0.736737 l 0.05524,0.862549 0.622764,-0.05068 c 0.342518,-0.02788 0.648875,-0.0768 0.680789,-0.108717 0.03196,-0.03192 0.128373,-1.000418 0.214337,-2.152222 0.159378,-2.135408 0.551753,-3.393609 1.232323,-3.95157 0.260829,-0.213842 0.277489,-0.190479 0.150571,0.211201 -0.07849,0.248403 -0.202961,1.102005 -0.276608,1.896893 -0.134934,1.456438 0.01106,2.683798 0.634065,5.329365 0.152079,0.645847 0.36576,1.750903 0.474844,2.45568 0.181712,1.174088 0.245519,1.304119 0.761809,1.552532 0.309914,0.149116 1.330489,0.629321 2.267948,1.067121 0.937451,0.437802 2.482059,1.314921 3.43247,1.949156 0.950404,0.634234 2.012548,1.274244 2.36031,1.422239 1.294547,0.55093 4.193316,1.32833 4.751604,1.2743 0.517457,-0.0501 0.608966,-0.15019 0.876714,-0.95919 0.347331,-1.049447 0.809407,-4.769319 1.144475,-9.213479 0.139516,-1.850402 0.749888,-5.830105 1.105467,-7.207782 0.151247,-0.586005 0.25551,-1.520902 0.231694,-2.077549 -0.0366,-0.855743 0.0027,-1.004018 0.255386,-0.959863 0.164274,0.02873 0.751444,-0.161963 1.304816,-0.423749 0.553372,-0.261787 1.103801,-0.496572 1.223175,-0.521745 0.119366,-0.02517 0.338981,-0.09485 0.488021,-0.154835 0.298539,-0.120158 1.147091,-0.272542 2.258205,-0.405527 0.68201,-0.08163 0.702317,-0.07069 0.361315,0.194612 -0.198721,0.154606 -0.564556,0.329782 -0.812958,0.389277 -0.248401,0.0595 -1.049921,0.564064 -1.781155,1.121259 -0.731227,0.557193 -1.593755,1.189964 -1.916724,1.406156 -0.479139,0.320732 -0.639193,0.603353 -0.869616,1.535579 -0.642341,2.598686 -1.178964,6.968966 -1.781804,14.511082 -0.291397,3.645614 -0.302493,3.424274 0.174994,3.491924 0.283401,0.0402 0.649994,0.41584 1.129105,1.15711 0.628193,0.97195 0.709371,1.22376 0.70879,2.19875 -5.39e-4,1.04001 -0.206539,1.74512 -1.28154,4.38813 -0.27503,0.6762 -0.04568,1.28496 0.614612,1.63111 2.049365,1.07439 3.470707,1.35701 4.863495,0.96706 0.424679,-0.11891 0.85344,-0.22139 0.952801,-0.22775 0.09936,-0.006 0.505836,-0.23632 0.903277,-0.51101 1.866574,-1.2901 2.951666,-3.09415 4.127748,-6.86268 0.376869,-1.20759 0.911198,-2.47477 1.276023,-3.02615 0.600895,-0.90816 1.360007,-2.858834 1.634484,-4.200105 0.07117,-0.347763 0.280151,-1.079422 0.46441,-1.625908 0.18426,-0.546486 0.549289,-1.680154 0.811176,-2.519259 0.261886,-0.839108 0.726843,-1.874728 1.033241,-2.301377 0.552204,-0.768936 0.555099,-0.784841 0.33022,-1.816496 -0.32882,-1.508481 -1.926399,-5.49252 -2.544787,-6.346177 -0.725321,-1.001282 -3.420385,-2.778807 -4.973281,-3.280129 -1.892527,-0.610962 -1.899129,-0.621053 -0.445033,-0.680515 1.26178,-0.0516 1.444066,-0.0091 2.706938,0.630923 2.42833,1.230697 4.542123,3.921893 5.695625,7.251416 0.41066,1.18536 0.62951,1.580146 0.903284,1.62948 0.198721,0.03581 0.866018,0.30002 1.482883,0.587134 0.616858,0.287113 1.272233,0.522025 1.45639,0.522025 0.622942,0 3.15086,0.736319 4.26419,1.242054 1.68215,0.764116 3.43386,2.73402 4.73227,5.321694 0.55675,1.109587 1.13419,2.153465 1.28318,2.319727 0.59589,0.664931 1.73859,1.28755 3.78399,2.061763 3.56146,1.34807 3.82469,1.52372 5.66212,3.77826 1.36076,1.66965 2.53377,4.35904 3.34883,7.6779 0.36808,1.49877 0.62071,4.16269 0.6339,6.68429 0.0111,2.12923 -0.0209,2.59311 -0.2457,3.55973 -0.0509,0.21903 1.49379,1.57316 1.33394,2.69551 -0.15985,1.12234 -0.0871,3.03366 -0.22558,3.72919 -0.1385,0.69553 -1.71498,1.21275 -1.70598,1.36179 0.009,0.14905 -0.17203,0.98933 -0.37661,1.43645 -0.20459,0.44713 -1.05269,0.44138 -1.22155,1.03755 -0.70203,2.47864 -2.36491,5.84018 -5.21534,10.54297 -1.77204,2.9236 -2.32106,3.96736 -3.56771,6.78271 -1.41782,3.2019 -2.20199,4.36846 -4.0642,6.0461 l -0.56429,0.50836 -0.13365,6.94978 c -0.0735,3.82237 -0.0792,8.16414 -0.0126,9.64837 0.12353,2.75393 0.61364,8.05109 0.75883,8.20155 0.10592,0.10976 0.92572,-0.89651 1.06664,-1.30926 0.0606,-0.1775 0.71859,-1.3444 1.46221,-2.59311 0.74361,-1.24871 1.31938,-2.30302 1.27949,-2.34292 -0.0399,-0.0399 -0.6344,0.13688 -1.32112,0.39283 -0.68673,0.25595 -1.4763,0.55031 -1.75462,0.65415 -0.27831,0.10382 -0.54827,0.14652 -0.5999,0.0949 -0.0822,-0.0822 7.12635,-13.09121 7.5383,-13.60408 0.34671,-0.43164 -0.10442,-0.36556 -1.48803,0.21798 -0.79758,0.33638 -1.48435,0.6116 -1.52617,0.6116 -0.15335,0 -0.0704,-0.56367 0.1141,-0.77542 0.10456,-0.12001 0.52546,-0.74662 0.93532,-1.39246 1.5778,-2.48623 2.03358,-3.16354 2.16793,-3.22171 0.0765,-0.0331 0.1391,-0.13353 0.1391,-0.22315 0,-0.33132 7.46815,-11.45102 7.54253,-11.23045 0.0619,0.18375 -3.75286,9.55394 -5.22794,12.84116 -0.38749,0.86354 -0.32189,1.14054 0.16833,0.71067 0.42884,-0.37605 1.41205,-0.86374 1.74134,-0.86374 0.19213,0 -0.10447,0.80368 -1.0501,2.84534 -3.21307,6.93719 -4.22611,9.23041 -4.1231,9.33342 0.0524,0.0524 0.30762,-0.0478 0.56724,-0.22259 0.85807,-0.57767 2.53703,-1.37021 2.6543,-1.25294 0.0634,0.0634 -0.83684,1.96945 -2.00053,4.23565 -1.16369,2.2662 -3.16669,6.19341 -4.4511,8.72711 l -4.68903,2.38041 -0.45156,3.04425 c -0.13547,0.91333 -0.18741,1.20485 -0.43582,1.3932 -0.2484,0.18836 -0.98006,0.65473 -1.62591,1.03638 -0.64584,0.38165 -1.31703,0.81601 -1.49152,0.96525 -0.17449,0.14924 -0.34527,0.23797 -0.37951,0.19718 -0.212417,-0.25312 -1.742092,-5.58174 -1.742092,-6.06863 0,-0.12532 0.264208,-0.29827 0.58713,-0.38432 0.438888,-0.11696 0.572456,-0.24371 0.52901,-0.50197 -0.03196,-0.19003 -0.125184,-0.75199 -0.207154,-1.24879 -0.08197,-0.49681 -0.159733,-3.03863 -0.172815,-5.64851 -0.01311,-2.60987 -0.07134,-5.00808 -0.129479,-5.32936 -0.166063,-0.91776 -1.878338,-6.10539 -2.279815,-6.90713 -0.528696,-1.05575 -2.478447,-3.49885 -3.638313,-4.55891 -0.835694,-0.76377 -1.289508,-1.01147 -2.679872,-1.4627 -3.246981,-1.05376 -5.721332,-1.42139 -7.003704,-1.04056 -0.556397,0.16523 -0.935772,0.19963 -1.002939,0.091 -0.201869,-0.32663 0.728297,-0.86369 1.997076,-1.15307 0.695523,-0.15864 1.508481,-0.36055 1.806562,-0.44868 1.275361,-0.37709 2.808367,-0.40974 4.209854,-0.0897 0.764772,0.17467 1.467725,0.3864 1.562121,0.4705 0.25344,0.2258 0.40877,0.18744 0.531024,-0.13117 0.18357,-0.47837 -0.191654,-0.90908 -1.237854,-1.42094 -0.550204,-0.26919 -1.000372,-0.56679 -1.000372,-0.66132 0,-0.0945 0.243882,-0.22067 0.54197,-0.28028 1.107065,-0.22142 0.525159,-0.73397 -2.163781,-1.90592 -0.843512,-0.36764 -1.559554,-0.74613 -1.591208,-0.84109 -0.08157,-0.2447 1.792954,0.32131 2.175347,0.65685 0.174495,0.1531 0.363043,0.23259 0.418998,0.17663 0.161502,-0.1615 -0.306753,-0.87867 -1.180479,-1.808 -0.867192,-0.92236 -0.655205,-1.22785 0.296408,-0.42713 0.419701,0.35316 1.707973,1.01427 1.976449,1.01427 0.26558,0 -0.458948,-1.78384 -0.964948,-2.37576 -0.416287,-0.48699 0.06179,-0.58634 0.756197,-0.15716 0.340817,0.21064 0.667221,0.52121 0.725334,0.69016 0.192596,0.5599 2.206981,1.94094 3.055471,2.0948 0.267813,0.0485 0.870278,0.32417 1.338813,0.61247 0.468541,0.28829 1.176211,0.62879 1.572609,0.75665 0.39639,0.12787 0.807365,0.30072 0.913273,0.38412 0.105902,0.0834 0.639801,0.20419 1.18644,0.26843 0.895119,0.10521 1.151179,0.0474 2.576729,-0.58165 1.67479,-0.73903 2.91177,-1.74765 3.21694,-2.62308 0.0958,-0.27471 0.32991,-0.54892 0.52033,-0.60935 0.19042,-0.0604 0.34621,-0.25676 0.34621,-0.43627 0,-0.38122 -0.79902,-1.86703 -1.16928,-2.17432 -0.13997,-0.11617 -0.20829,-0.33162 -0.15181,-0.47879 0.0868,-0.22617 0.162,-0.21532 0.48606,0.0702 0.21086,0.18578 0.61836,0.49504 0.90553,0.68727 0.28719,0.19222 0.62685,0.42669 0.75481,0.52104 0.47101,0.34728 1.44141,-1.1842 1.6244,-2.56361 0.11781,-0.88812 0.10041,-0.93544 -0.63899,-1.7376 -0.41806,-0.45353 -0.92338,-0.87643 -1.12294,-0.93977 -0.25784,-0.0818 -0.30687,-0.17113 -0.16942,-0.30858 0.33353,-0.33352 1.61687,0.22405 2.26886,0.98576 0.32427,0.37884 0.64067,0.6888 0.70311,0.6888 0.19667,0 0.66489,-1.04762 0.66211,-1.48144 -10e-4,-0.2285 -0.12123,-0.61869 -0.26616,-0.86709 -0.14491,-0.2484 -0.38715,-0.71216 -0.5383,-1.03057 -0.30655,-0.64581 -1.5033,-1.4311 -2.45709,-1.61233 -0.638,-0.12122 -1.07154,-0.36812 -1.07154,-0.61022 0,-0.0757 0.44729,-0.1936 0.99398,-0.2619 0.74098,-0.0926 1.1389,-0.0519 1.56333,0.15983 0.31315,0.15622 0.72433,0.28404 0.91373,0.28404 0.1894,0 0.77416,0.40647 1.29946,0.90327 0.5253,0.49681 1.03524,0.90328 1.13322,0.90328 0.22885,0 1.28399,-1.30957 1.47826,-1.83472 0.13548,-0.36624 -0.0842,-1.88842 -0.43404,-3.00717 -0.11818,-0.37793 -0.0867,-0.40496 0.34513,-0.29657 0.26133,0.0656 0.47515,0.048 0.47515,-0.0391 0,-0.26005 -0.92821,-1.54533 -1.42993,-1.98 -0.53432,-0.46292 -2.40611,-1.23057 -3.68229,-1.51016 -0.81424,-0.17839 -0.91281,-0.15804 -1.6259,0.33558 -0.41752,0.28903 -0.94979,0.73053 -1.18283,0.98115 -0.41669,0.4481 -0.41903,0.47161 -0.14106,1.41927 0.15545,0.52999 0.47599,1.24817 0.7123,1.59593 0.44632,0.65679 0.47237,1.26782 0.0387,0.90791 -0.12665,-0.1051 -1.13488,-0.24285 -2.24053,-0.30612 l -2.01028,-0.11501 -1.06953,1.02016 c -1.185352,1.13063 -1.685554,1.38356 -2.736213,1.38356 -0.806813,0 -0.846879,0.11353 -0.369919,1.04814 0.853065,1.6716 1.464311,3.14358 1.369252,3.29738 -0.05736,0.0928 -0.434163,-0.0135 -0.840413,-0.23694 -0.405055,-0.22282 -0.921331,-0.50748 -1.147281,-0.63258 -0.225951,-0.1251 -0.909594,-0.79005 -1.519215,-1.47767 -0.728939,-0.82221 -1.290723,-1.29026 -1.640991,-1.36719 -0.292926,-0.0643 -0.577631,-0.18984 -0.632672,-0.2789 -0.05503,-0.0891 -0.36083,-0.278 -0.679532,-0.41988 -1.76498,-0.78575 -3.461721,-0.89289 -4.362752,-0.27549 -0.642313,0.44012 -1.512953,1.80398 -1.919265,3.00654 -0.357785,1.05891 -0.669816,1.1836 -0.744336,0.29741 -0.05524,-0.65703 -0.508376,-1.12227 -0.508376,-0.52196 0,0.1656 -0.100002,0.26776 -0.222223,0.22701 -0.12222,-0.0408 -0.305134,-0.55561 -0.406475,-1.14415 -0.20023,-1.16283 -0.920887,-2.60566 -1.301464,-2.60566 -0.130742,0 -0.237715,0.0914 -0.237715,0.20323 0,0.42653 -0.963296,2.32596 -1.179612,2.32596 -0.392745,0 -0.419606,-0.42348 -0.170522,-2.6883 0.235012,-2.13687 0.170679,-2.94102 -0.283558,-3.54435 -0.07481,-0.0994 -0.530464,-0.95156 -1.012566,-1.89377 -0.49401,-0.9655 -1.200321,-2.02985 -1.618452,-2.43887 -0.792549,-0.77528 -3.721361,-2.60325 -4.768115,-2.97594 -0.347761,-0.12382 -0.794887,-0.29189 -0.993608,-0.37349 -0.198721,-0.0816 -0.583217,-0.19648 -0.854437,-0.25527 -0.27122,-0.0588 -0.904835,-0.34966 -1.408042,-0.64635 -0.5032,-0.2967 -1.002344,-0.53946 -1.109202,-0.53946 -0.106864,0 -0.79528,-0.58481 -1.529804,-1.2996 -1.034593,-1.00678 -1.548718,-1.36608 -2.281782,-1.59468 -0.520447,-0.16228 -1.712131,-0.68024 -2.648183,-1.151 -1.83483,-0.92278 -2.323691,-0.97493 -3.709931,-0.39572 -0.673428,0.28137 -0.74816,0.38881 -0.890045,1.27952 -0.04745,0.29808 -0.196707,0.9078 -0.331607,1.35492 -0.227801,0.75507 -0.293015,0.81694 -0.915821,0.86903 -0.664524,0.0556 -0.670553,0.0633 -0.670553,0.85811 0,0.90503 -0.269452,1.04172 -0.830116,0.42111 -0.311089,-0.34435 -0.343672,-0.6828 -0.339145,-3.5228 0.0027,-1.72802 -0.0536,-3.14186 -0.12517,-3.14186 -0.07159,0 -0.400248,0.15935 -0.730353,0.35412 -0.330104,0.19477 -1.020452,0.44425 -1.534113,0.55441 -0.513653,0.11015 -1.030482,0.31663 -1.148497,0.45883 -0.328227,0.3955 -0.851767,0.3087 -1.18248,-0.19603 -0.615267,-0.93902 0.06091,-3.12762 1.064664,-3.44621 0.411473,-0.13059 1.212079,-0.79741 1.212079,-1.00952 0,-0.0814 -0.313308,-0.14808 -0.696247,-0.14808 -0.492269,0 -0.839013,-0.13231 -1.183573,-0.45164 -0.268031,-0.2484 -0.625407,-0.45422 -0.794166,-0.45738 -0.399313,-0.008 -0.824169,-0.34088 -1.104198,-0.86649 -0.400323,-0.75141 -0.168022,-0.89246 1.582728,-0.96105 0.893104,-0.0349 1.68721,-0.12709 1.764673,-0.20468 0.07746,-0.0776 -0.281694,-0.51069 -0.79812,-0.96246 -0.659322,-0.57675 -0.938975,-0.9551 -0.938975,-1.27037 0,-0.31942 0.09124,-0.43971 0.316149,-0.41683 0.605223,0.0616 0.61427,-0.0135 0.08273,-0.68691 -0.597146,-0.75647 -0.960414,-2.21533 -0.550245,-2.20975 0.132934,0.002 0.599441,0.2457 1.036676,0.54197 0.437235,0.29628 0.859237,0.53868 0.937786,0.53868 0.315165,0 0.37239,-0.43045 0.158682,-1.19372 -0.123784,-0.44212 -0.183502,-0.84542 -0.132701,-0.89622 0.0508,-0.0508 0.610754,0.34995 1.244354,0.89054 1.330893,1.13553 5.190752,3.48159 6.120051,3.71981 2.771435,0.71045 4.367443,0.74022 5.31218,0.0991 0.39592,-0.26868 0.921345,-0.45164 1.297006,-0.45164 0.739481,0 1.729932,-0.46853 3.236589,-1.53105 0.59617,-0.42044 1.29665,-0.87798 1.556625,-1.01677 0.259975,-0.1388 0.817409,-0.65349 1.238735,-1.14377 0.74011,-0.86122 0.763523,-0.9264 0.691338,-1.92439 -0.100364,-1.38745 -0.800278,-2.37338 -1.574896,-2.21846 -0.707206,0.14144 -2.480168,-0.39004 -3.357049,-1.00635 -0.902759,-0.63449 -4.363428,-2.387809 -5.69671,-2.886199 -1.073554,-0.401299 -4.425153,-2.079761 -4.871695,-2.439713 -1.013235,-0.816764 -5.014905,-2.117234 -6.618717,-2.150967 -1.054244,-0.02217 -1.412719,0.196717 -1.786249,1.090705 -0.140008,0.335081 -0.85454,1.439041 -1.587849,2.453244 -2.265982,3.13397 -4.398641,6.37695 -4.917129,7.47713 -0.272469,0.57814 -0.93896,1.97916 -1.481093,3.11338 -2.526127,5.28502 -2.901842,6.37884 -3.045865,8.8675 -0.09239,1.59646 0.201016,3.7677 0.557285,4.12396 0.062,0.062 0.536043,-0.10883 1.053377,-0.37968 0.517327,-0.27086 0.987746,-0.49247 1.045367,-0.49247 0.149471,0 -0.382891,2.03236 -0.603346,2.30337 -0.101033,0.1242 -0.326376,0.22582 -0.500769,0.22582 -0.174386,0 -0.418213,0.12188 -0.54184,0.27084 -0.183098,0.22061 -0.103464,0.63599 0.42952,2.24045 0.359861,1.0833 0.654289,2.08009 0.654289,2.2151 0,0.13502 0.365829,0.99831 0.812958,1.91844 0.447122,0.92013 0.81295,1.74455 0.81295,1.83203 0,0.49399 3.213245,4.6734 4.877724,6.34439 1.974318,1.98202 12.666774,10.69563 13.631381,11.10862 0.895514,0.38341 3.074876,0.68818 4.074476,0.56979 0.511305,-0.0606 1.353656,-0.30422 1.871892,-0.54148 0.518242,-0.23726 1.249708,-0.48905 1.625491,-0.55955 0.375777,-0.0705 1.286866,-0.40326 2.024634,-0.73947 0.838152,-0.38196 1.341407,-0.5289 1.341407,-0.39168 0,0.1208 -0.284535,0.37287 -0.632303,0.56014 -0.347762,0.18729 -0.632297,0.40901 -0.632297,0.49273 0,0.22318 0.861129,0.18591 1.002857,-0.0434 0.312495,-0.50564 2.6764,-1.20997 4.732982,-1.4102 1.311733,-0.12772 1.525537,-0.0627 1.061358,0.32247 -0.13662,0.11339 -0.256198,0.38755 -0.265724,0.60926 -0.0095,0.2217 -0.04001,0.55443 -0.06773,0.7394 -0.03079,0.20558 0.09771,0.39277 0.330699,0.4816 0.301406,0.11491 0.584548,-0.0216 1.353643,-0.65245 0.534882,-0.43876 1.073997,-0.79775 1.19802,-0.79775 0.12403,0 0.815614,-0.19682 1.536865,-0.43738 1.571352,-0.52409 2.60331,-0.71395 2.733717,-0.50294 0.05258,0.0851 -0.46807,0.6152 -1.157018,1.17803 -0.754572,0.61645 -1.357959,1.27544 -1.517556,1.65741 -0.145715,0.34873 -0.338086,0.63407 -0.427491,0.63407 -0.2094,0 -1.843099,1.65331 -1.843099,1.86522 0,0.0884 0.142267,0.10154 0.316148,0.0293 0.753131,-0.31292 3.795841,-1.3457 4.290595,-1.45635 0.298081,-0.0666 0.907798,-0.15408 1.35492,-0.19427 l 0.812957,-0.0731 -0.496809,0.28167 c -0.273241,0.15492 -0.49698,0.34004 -0.497198,0.41139 -1.78e-4,0.0713 -0.362982,0.3736 -0.806144,0.67169 -0.717168,0.48238 -1.368603,1.40788 -1.146981,1.6295 0.04527,0.0453 0.930153,0.11922 1.966378,0.1643 1.643913,0.0715 2.544118,0.21572 3.600267,0.57673 0.229372,0.0784 0.223097,0.11952 -0.0409,0.26772 -0.295234,0.16575 -2.467085,0.017 -5.230934,-0.35817 l -1.026393,-0.13934 -0.915663,1.04024 c -0.50361,0.57213 -0.915657,1.08123 -0.915657,1.13132 0,0.13231 1.297429,-0.0876 1.682792,-0.28529 0.588618,-0.30188 1.041899,-0.31441 1.150354,-0.0317 0.0579,0.15097 0.01768,0.36214 -0.08946,0.46928 -0.291438,0.29144 -1.968801,0.84548 -2.956247,0.97647 -0.834179,0.11066 -0.901796,0.16477 -1.677848,1.34275 -0.444753,0.67509 -1.038834,1.7012 -1.320173,2.28024 -1.074946,2.21239 -2.826291,4.39899 -4.576409,5.71374 -0.745402,0.55998 -5.574019,2.8363 -6.016457,2.8363 -0.363719,0 -0.524627,0.28449 -1.250726,2.21134 -0.463639,1.23035 -0.654897,2.01835 -0.635785,2.61952 0.0254,0.79917 -0.540693,3.8113 -1.570602,8.35706 -0.698678,3.08376 -1.869441,8.69055 -2.020181,9.67463 -0.122672,0.8008 -0.184151,0.89953 -0.501139,0.80478 z m -1.990508,-45.17077 c -0.134237,-0.21721 -3.637268,-2.60679 -4.693778,-3.20186 l -0.722624,-0.40701 0.722624,0.64915 c 0.779063,0.69986 4.396892,3.1457 4.653043,3.1457 0.08562,0 0.103955,-0.0837 0.04076,-0.18598 z m 27.192082,-6.87029 c 0,-0.20458 -0.0813,-0.32173 -0.180661,-0.26032 -0.09936,0.0614 -0.180654,0.2288 -0.180654,0.37198 0,0.14317 0.08129,0.26032 0.180654,0.26032 0.09936,0 0.180661,-0.16739 0.180661,-0.37198 z m 20.142189,-16.36474 c 0.49626,-0.16997 1.26857,-0.57578 1.71624,-0.90178 0.87313,-0.63584 3.79887,-3.72145 4.51612,-4.7629 0.23951,-0.34776 0.73195,-0.99812 1.09432,-1.44525 0.36236,-0.44712 0.95368,-1.351 1.31403,-2.00862 0.46146,-0.8421 0.81556,-1.2621 1.19746,-1.42029 0.34973,-0.14486 0.65229,-0.474 0.85217,-0.92703 0.19534,-0.44276 0.43062,-0.70244 0.63645,-0.70244 0.27419,0 0.32655,-0.15467 0.32655,-0.96471 0,-2.05528 -0.9977,-4.84973 -2.41239,-6.75683 -0.7942,-1.07065 -0.95735,-1.18607 -3.23163,-2.28638 -3.38409,-1.63725 -3.58901,-1.69774 -4.35446,-1.28552 -0.55946,0.30128 -0.68078,0.51737 -1.2105,2.15585 -0.73718,2.28021 -0.93161,2.66642 -1.83662,3.64823 -0.40166,0.43576 -0.67794,0.79229 -0.61392,0.79229 0.064,0 -0.0887,0.40476 -0.33941,0.89946 -0.58534,1.1551 -1.10982,2.61272 -1.26353,3.5116 -0.0666,0.38918 -0.34724,1.28343 -0.62374,1.98723 -0.2765,0.70379 -0.64328,1.86257 -0.81507,2.57507 -0.17697,0.73399 -0.57946,1.71006 -0.928686,2.25211 -0.53407,0.82895 -0.61634,1.10784 -0.61634,2.08914 0,1.92593 1.155136,3.33975 3.161486,3.86946 0.75235,0.19864 2.35592,0.0497 3.43147,-0.31869 z m 7.05926,-15.03434 c -0.15674,-0.30309 -0.81246,-1.14392 -1.45717,-1.86852 -0.6447,-0.72459 -1.16891,-1.39873 -1.16491,-1.49809 0.0122,-0.30283 2.88002,2.86106 2.99609,3.30539 0.167,0.63938 -0.0561,0.67591 -0.37401,0.0612 z m -0.0578,-2.1857 c -1.29201,-1.19446 -1.5898,-1.59802 -1.017,-1.37822 0.22257,0.0854 0.27078,0.0283 0.2011,-0.23813 -0.15038,-0.57509 0.33996,-0.24938 1.02364,0.67994 0.33965,0.46169 0.82817,1.03652 1.0856,1.2774 0.5222,0.48863 0.57428,0.65714 0.24224,0.78376 -0.1242,0.0474 -0.81521,-0.45878 -1.53558,-1.12475 z m -4.42608,-1.5516 c -0.96056,-0.52813 -0.42352,-0.83049 0.74904,-0.42173 0.31743,0.11065 0.54675,0.29356 0.50961,0.40647 -0.10287,0.31275 -0.70431,0.32004 -1.25865,0.0152 z m 1.85106,-1.7979 c -0.233,-0.24801 -0.34076,-0.45093 -0.23947,-0.45093 0.23075,0 0.87154,0.69342 0.7516,0.81335 -0.0487,0.0487 -0.27914,-0.11441 -0.51213,-0.36242 z m -18.531027,16.30746 c 1.506624,-0.68866 1.341926,-0.57725 2.77971,-1.88039 1.085052,-0.98345 3.286694,-3.98184 3.286694,-4.47612 0,-0.12824 0.269711,-0.59036 0.599351,-1.02693 0.688695,-0.9121 2.753072,-4.33205 3.430312,-5.68284 0.2522,-0.50305 0.58189,-1.01698 0.73261,-1.14208 0.15074,-0.12509 0.4504,-0.811 0.66593,-1.52423 0.33661,-1.11391 0.92719,-2.58538 1.42681,-3.55499 0.0768,-0.14905 0.2324,-0.28115 0.34577,-0.29357 0.11337,-0.0124 0.28743,-0.0327 0.38679,-0.0452 0.0994,-0.0124 0.18065,-0.18517 0.18065,-0.38389 0,-0.24461 0.12044,-0.36132 0.37287,-0.36132 h 0.37287 l -0.3534,-0.677456 c -0.19436,-0.372604 -0.45274,-1.043291 -0.57416,-1.490416 -0.29961,-1.10328 -1.31358,-3.080146 -1.8069,-3.522801 -0.22147,-0.198722 -0.75212,-0.849968 -1.17923,-1.447216 -0.91738,-1.282835 -1.66016,-1.980742 -2.26482,-2.128013 -0.727093,-0.177092 -2.008619,-0.520975 -3.002272,-0.805625 -1.063858,-0.30476 -1.643893,-0.182004 -2.629673,0.556531 -0.323188,0.242133 -0.768418,0.495132 -0.989385,0.562217 -0.626492,0.190202 -1.093204,0.925582 -1.598268,2.518333 -0.561183,1.769721 -1.501796,5.371069 -1.632504,6.250399 -0.05196,0.349627 -0.338851,1.692537 -0.637506,2.984227 -0.298655,1.29169 -0.693571,3.03955 -0.877591,3.88411 -0.184014,0.84457 -0.812678,2.79566 -1.397021,4.33576 -0.584351,1.54009 -1.210912,3.45897 -1.392358,4.26418 -0.325202,1.44318 -0.324649,1.48043 0.03899,2.61952 0.202893,0.63553 0.414266,1.36316 0.469729,1.61696 0.07187,0.32887 0.372397,0.60137 1.045982,0.94845 1.344849,0.69295 2.53075,0.66539 4.200029,-0.0976 z m 7.476084,-23.719126 c -0.05271,-0.05268 -0.53844,-0.167832 -1.079467,-0.255885 -1.318745,-0.214631 -3.185263,-0.769461 -2.908151,-0.864457 0.122228,-0.0419 0.65065,0.04235 1.174266,0.187239 0.523616,0.144885 1.460125,0.36547 2.081135,0.490188 0.621003,0.124718 1.129099,0.296949 1.129099,0.382732 0,0.172535 -0.247063,0.210002 -0.396882,0.06018 z M 100.989,96.313271 c -0.32292,-0.160714 -0.58713,-0.358753 -0.58713,-0.440088 0,-0.08133 -0.15607,-0.14788 -0.34681,-0.14788 -0.487977,0 -4.530915,-1.92493 -4.530915,-2.157267 0,-0.105197 0.113426,-0.191267 0.252068,-0.191267 0.403102,0 6.070907,2.863638 6.070907,3.067303 0,0.243216 -0.15367,0.219794 -0.85812,-0.130801 z M 86.446127,185.02172 c -0.391133,-0.435 -0.401846,-0.70325 -0.03373,-0.84452 0.163175,-0.0626 0.228266,-0.20428 0.154155,-0.33548 -0.09596,-0.16988 -0.07298,-0.1762 0.0912,-0.0251 0.120903,0.11127 0.193662,0.50624 0.162,0.87933 -0.05599,0.65966 -0.06575,0.66816 -0.373639,0.32574 z m -19.97716,-76.55264 c -0.728414,-0.13694 -1.460071,-0.36862 -1.625908,-0.51484 -0.165838,-0.14622 -0.965173,-0.59736 -1.776301,-1.00253 -1.251326,-0.62505 -1.492872,-0.81908 -1.594233,-1.28055 -0.17948,-0.81718 0.08313,-2.55209 0.487455,-3.2203 0.466254,-0.77057 1.418106,-1.48782 1.966316,-1.48169 0.426911,0.005 0.424535,0.0135 -0.134326,0.49681 -1.014253,0.87704 -1.356095,2.16526 -0.854854,3.22154 0.346109,0.72938 1.689927,1.87241 2.619028,2.2277 0.336215,0.12858 0.895835,0.36201 1.243603,0.51874 0.347762,0.15674 1.140393,0.31926 1.761396,0.36118 0.778353,0.0525 1.129105,0.15054 1.129105,0.31549 0,0.1316 -0.07455,0.28535 -0.165673,0.34167 -0.388491,0.2401 -1.825797,0.248 -3.055608,0.0168 z M 88.614005,86.264716 c -0.508281,-0.188233 -0.676644,-0.480123 -0.270982,-0.469803 0.257571,0.0066 0.962026,0.501078 0.844926,0.593139 -0.0424,0.03336 -0.300703,-0.02214 -0.573944,-0.123336 z m -1.490414,-0.656204 c -0.141305,-0.228638 0.09785,-0.228638 0.451642,0 0.23353,0.15092 0.228764,0.175506 -0.03448,0.177891 -0.168016,0.0015 -0.35573,-0.07853 -0.417141,-0.177891 z m -1.032477,-0.279743 c -0.05449,-0.0545 -0.837469,-0.175479 -1.739935,-0.268845 -2.010807,-0.208037 -2.073781,-0.220575 -2.235392,-0.445022 -0.211291,-0.293461 0.488548,-0.368063 2.3901,-0.25478 1.764693,0.105129 2.346722,0.308224 2.346722,0.818868 0,0.240799 -0.560275,0.351 -0.761495,0.149779 z m 1.393792,-1.647419 c -0.198721,-0.04327 -0.523903,-0.148416 -0.722631,-0.233646 -0.19872,-0.08523 -0.503575,-0.200431 -0.677456,-0.256003 -0.173888,-0.05557 -0.316148,-0.193584 -0.316148,-0.306693 0,-0.127118 0.120732,-0.153835 0.316148,-0.06996 0.173881,0.07463 0.519382,0.144301 0.76779,0.15482 0.248402,0.01052 0.63455,0.202041 0.858118,0.425603 0.223561,0.223563 0.345502,0.397048 0.270981,0.385521 -0.07452,-0.01153 -0.298081,-0.05636 -0.496802,-0.09964 z m -0.180661,-0.421372 c -0.06138,-0.09936 -0.192945,-0.180657 -0.292305,-0.180657 -0.09936,0 -0.130414,0.0813 -0.069,0.180657 0.06138,0.09936 0.192945,0.180657 0.292305,0.180657 0.09936,0 0.130414,-0.08129 0.069,-0.180657 z M 82.92333,82.853917 c -1.187874,-0.123329 -1.671075,-0.243334 -1.671075,-0.415024 0,-0.421969 0.22759,-0.411877 2.258204,0.100123 2.128856,0.536771 2.034965,0.58713 -0.587129,0.314901 z M 58.128238,82.529799 c 0,-0.103516 0.162588,-0.362731 0.361308,-0.576034 0.198721,-0.213305 0.361316,-0.494439 0.361316,-0.624744 0,-0.130305 0.06887,-0.23692 0.153048,-0.23692 0.08418,0 0.226443,-0.159115 0.316149,-0.35359 0.224537,-0.486788 1.154075,-1.566306 2.938474,-3.412597 0.830921,-0.859748 1.647143,-1.72577 1.813827,-1.924492 0.579659,-0.691103 1.763416,-1.284736 3.056659,-1.532864 1.107475,-0.212486 3.820694,-0.122673 3.977888,0.131676 0.06732,0.108873 0.240337,0.224793 0.384557,0.2576 0.922287,0.209804 2.947415,2.441932 3.880088,4.276701 0.505747,0.994897 0.185747,0.842312 -0.396821,-0.189222 -0.86401,-1.529862 -2.04228,-2.720827 -3.048763,-3.081598 -0.949735,-0.340433 -3.621837,-0.43879 -4.180227,-0.153869 -0.172536,0.08803 -0.760826,0.348981 -1.307309,0.579882 -0.992102,0.419181 -3.344184,2.012533 -4.489923,3.041569 -2.118238,1.90248 -2.745891,2.543072 -2.907065,2.966999 -0.0999,0.262759 -0.264946,0.477744 -0.366764,0.477744 -0.101826,0 -0.185134,0.121942 -0.185134,0.270984 0,0.149042 -0.08129,0.270985 -0.180654,0.270985 -0.09936,0 -0.180654,-0.08469 -0.180654,-0.18821 z m 13.499649,-2.728671 c -0.871835,-0.510562 -1.550999,-0.962453 -1.509246,-1.004201 0.126413,-0.126419 3.365393,1.562673 3.365393,1.755018 0,0.298434 -0.208362,0.214152 -1.856147,-0.750817 z m -2.118293,0.04035 c -0.673995,-0.0932 -0.744828,-0.136531 -0.414375,-0.253519 0.447395,-0.158387 1.630018,0.01418 1.781954,0.260022 0.105792,0.171172 -0.08938,0.170244 -1.367579,-0.0065 z M 65.896463,78.77229 c 0,-0.184096 6.466884,-1.028973 6.629703,-0.866149 0.06316,0.06314 -0.142629,0.1148 -0.457275,0.1148 -0.575249,0 -0.766568,0.240922 -0.346259,0.436032 0.1242,0.05765 -0.235975,0.05929 -0.800388,0.0036 -0.694376,-0.06848 -1.295188,-0.0099 -1.858045,0.18121 -0.873705,0.296627 -3.167736,0.391118 -3.167736,0.130476 z m 6.232644,-0.209379 c -0.06732,-0.108937 0.175226,-0.180657 0.610979,-0.180657 0.397442,0 0.772864,0.0813 0.834275,0.180657 0.06735,0.108938 -0.175226,0.180656 -0.610973,0.180656 -0.397442,0 -0.77287,-0.08129 -0.834281,-0.180656 z"
       id="path7214"
       sodipodi:nodetypes="cscssccssssssssccssccssssssssssssssssssssssccssssscscssssssssccssssssssssssssssssssssssssssssssscsssssssssssssscssssssssscccssssscscsssssssssssssssssssssssssssscscsssssssssssssssssssssssssssssssssscssssssssssssssssssssssccsscssssssssscsssssssssssssssssssssssssssssssssssssssssssscssssssssssscssssssssscsssssssssssssssssssssssssssssssscsssssssssssssssssssssscsssssssssssssssssssssssssssssssssssssssssssscsssssssssscsscscsssssscsssssssssssssssssscssssssssssssssssssssssssscsssssssssssssssssssssssssssssssssssssssscsssssssssssssssssssssssssssssssssssssssssssssssssssssssssssssscssssssssssssssssscscscsssssssssssscssssssssssssssssssssssssssssssssss" />
    <path
       style="display:inline;fill:none;fill-rule:evenodd;stroke:#000000;stroke-width:0.180656px;stroke-linecap:butt;stroke-linejoin:miter;stroke-opacity:1"
       d="m 92.136262,195.21874 -3.587901,0.85116"
       id="path8045"
       inkscape:connector-type="polyline"
       inkscape:connector-curvature="0" />
    <path
       style="fill:none;fill-rule:evenodd;stroke:#000000;stroke-width:0.180656px;stroke-linecap:butt;stroke-linejoin:miter;stroke-opacity:1"
       d="m 95.551997,193.60611 0.03154,-0.0165"
       id="path8047"
       inkscape:connector-type="polyline"
       inkscape:connector-curvature="0" />
    <path
       style="display:inline;fill:none;fill-rule:evenodd;stroke:#000000;stroke-width:0.180656px;stroke-linecap:butt;stroke-linejoin:miter;stroke-opacity:1"
       d="m 95.793475,193.65388 4.467035,-1.94055"
       id="path8049"
       inkscape:connector-type="polyline"
       inkscape:connector-curvature="0" />
    <path
       style="fill:none;fill-rule:evenodd;stroke:#000000;stroke-width:0.180656px;stroke-linecap:butt;stroke-linejoin:miter;stroke-opacity:1"
       d="m 92.136262,195.21874 v 0"
       id="path8051"
       inkscape:connector-type="polyline"
       inkscape:connector-curvature="0" />
    <path
       style="fill:none;fill-rule:evenodd;stroke:#000000;stroke-width:0.180656px;stroke-linecap:butt;stroke-linejoin:miter;stroke-opacity:1"
       d="m 89.78967,195.5341 v 0"
       id="path8055"
       inkscape:connector-type="polyline"
       inkscape:connector-curvature="0" />
    <path
       style="fill:none;fill-rule:evenodd;stroke:#000000;stroke-width:0.180656px;stroke-linecap:butt;stroke-linejoin:miter;stroke-opacity:1"
       d="m 76.278216,80.903426 -0.66617,-1.719705"
       id="path8083"
       inkscape:connector-type="polyline"
       inkscape:connector-curvature="0" />
    <path
       style="fill:none;fill-rule:evenodd;stroke:#000000;stroke-width:0.180656px;stroke-linecap:butt;stroke-linejoin:miter;stroke-opacity:1"
       d="m 82.129184,79.349905 1.585896,-0.27935"
       id="path8085"
       inkscape:connector-type="polyline"
       inkscape:connector-curvature="0" />
    <path
       style="fill:none;fill-rule:evenodd;stroke:#000000;stroke-width:0.180656px;stroke-linecap:butt;stroke-linejoin:miter;stroke-opacity:1"
       d="m 58.128238,82.529799 0.222045,1.492748"
       id="path8087"
       inkscape:connector-type="polyline"
       inkscape:connector-curvature="0" />
    <path
       style="fill:#a0a0a0;stroke:none;stroke-width:0.0823158"
       d="m 78.582536,112.28592 c -0.69086,-0.17862 -2.295191,-0.87891 -2.590384,-1.1307 -0.256192,-0.21853 -0.4078,-0.52282 -0.4078,-0.81847 0,-0.17166 0.197109,-0.80844 0.454981,-1.46987 0.737508,-1.89168 0.880097,-2.45287 0.88928,-3.50001 0.0071,-0.81291 -0.01413,-0.95318 -0.207788,-1.37207 -0.453732,-0.98133 -1.221714,-1.91099 -1.679241,-2.03275 -0.228723,-0.0609 -0.240331,-0.0868 -0.264174,-0.58913 -0.04227,-0.89055 0.584289,-8.084323 1.017919,-11.687249 0.373844,-3.106145 0.869083,-5.764115 1.208535,-6.486286 0.184164,-0.39178 0.157917,-0.368891 1.873121,-1.633738 1.511752,-1.114818 1.967177,-1.405313 2.579214,-1.645169 0.270804,-0.106125 0.557121,-0.251559 0.636271,-0.323185 0.07914,-0.07163 0.473621,-0.188673 0.876607,-0.260103 l 0.732709,-0.129873 0.920429,0.3067 c 2.067746,0.689003 4.810244,2.461519 5.520092,3.567715 0.563006,0.87738 1.824984,3.97587 2.320346,5.697089 0.341917,1.188042 0.327578,1.493337 -0.100979,2.149407 -0.189421,0.28998 -0.481344,0.842095 -0.648718,1.226923 -0.377019,0.86683 -1.355473,3.893984 -1.806323,5.588423 -0.404939,1.52191 -0.90562,2.798486 -1.518279,3.871136 -0.549651,0.96234 -0.736115,1.41062 -1.415634,3.40331 -1.072918,3.14633 -1.748586,4.42741 -2.986488,5.66243 -1.056306,1.05385 -1.648987,1.37607 -3.094165,1.68219 -0.800442,0.16955 -1.439075,0.14834 -2.309531,-0.0767 z M 89.20377,86.290136 c -0.06644,-0.171479 -0.578308,-0.479633 -0.826559,-0.497598 -0.165182,-0.01196 -0.241997,0.0255 -0.2633,0.128393 -0.02164,0.104537 0.06977,0.190584 0.326042,0.306877 0.410101,0.186108 0.824886,0.219954 0.763817,0.06233 z m -1.436658,-0.55352 c 0,-0.04411 -0.109288,-0.136716 -0.242857,-0.20579 -0.427833,-0.221239 -0.651483,-0.126208 -0.368634,0.156639 0.140977,0.140976 0.611491,0.178796 0.611491,0.04915 z m -1.064697,-0.334274 c 0.203569,-0.108948 0.204804,-0.424232 0.002,-0.607429 -0.266857,-0.241503 -0.874129,-0.369511 -2.215796,-0.467072 -1.812844,-0.131823 -2.560294,-0.04036 -2.430672,0.297432 0.07078,0.184444 0.478333,0.273714 2.076417,0.454816 0.831803,0.09426 1.646733,0.220188 1.810953,0.279832 0.381532,0.138574 0.55852,0.148496 0.756722,0.04242 z m 1.311644,-1.676054 c 0,-0.15159 -0.480258,-0.568767 -0.786472,-0.68317 -0.363807,-0.135924 -1.428552,-0.306937 -1.495316,-0.240171 -0.18751,0.187507 0.612987,0.607053 1.746735,0.915485 0.528846,0.143869 0.535053,0.14396 0.535053,0.0079 z m -3.009437,-0.7872 c -0.108196,-0.108196 -2.602047,-0.734069 -3.176155,-0.797108 -0.426816,-0.04687 -0.472884,-0.03559 -0.566052,0.138494 -0.138833,0.259409 0.0269,0.370211 0.729226,0.487445 1.297476,0.216586 3.164466,0.32265 3.012981,0.171169 z"
       id="path8126" />
    <path
       style="fill:#a0a0a0;stroke:none;stroke-width:0.0823158"
       d="m 88.338565,120.78274 c -0.639671,-0.22431 -1.437491,-0.69117 -1.596889,-0.93445 -0.06248,-0.0953 -0.156934,-0.33666 -0.20994,-0.5363 -0.05298,-0.19964 -0.222714,-0.78186 -0.377135,-1.29382 -0.154415,-0.51196 -0.280759,-1.09576 -0.280759,-1.29734 0,-0.82369 0.477814,-2.48023 1.652591,-5.72941 0.35474,-0.98113 0.793198,-2.27761 0.97435,-2.88105 0.315295,-1.05032 1.315905,-5.37277 1.826063,-7.88825 0.491429,-2.423144 1.567959,-6.360119 2.06737,-7.56058 0.366177,-0.880201 0.670376,-1.237101 1.3445,-1.577416 0.314885,-0.158963 0.794775,-0.440048 1.066412,-0.624633 0.6604,-0.448749 0.983178,-0.566642 1.522846,-0.556213 0.638865,0.01234 4.063576,0.961361 4.463386,1.236844 0.42195,0.290725 0.90227,0.820902 1.66534,1.838188 0.35658,0.475376 0.81982,1.049529 1.02941,1.275899 0.69253,0.747948 1.47104,2.237412 1.97914,3.786536 0.14849,0.452737 0.39441,1.07227 0.54647,1.376739 0.15207,0.304468 0.27649,0.573022 0.27649,0.596786 0,0.0238 -0.13081,0.0432 -0.29068,0.0432 -0.1631,0 -0.30269,0.0452 -0.31804,0.10289 -0.12558,0.47263 -0.19419,0.59784 -0.33961,0.61978 -0.47362,0.0715 -0.53889,0.11689 -0.74094,0.51561 -0.32277,0.63696 -0.89335,2.06557 -1.30423,3.26551 -0.41271,1.20526 -0.47254,1.33646 -0.7991,1.75222 -0.12447,0.15846 -0.51991,0.82522 -0.87876,1.48169 -0.89112,1.6302 -2.034465,3.52002 -2.953986,4.88261 -0.422091,0.62548 -0.804273,1.27402 -0.849289,1.44119 -0.153343,0.56947 -1.686124,2.72165 -2.753723,3.8665 -1.318589,1.414 -2.273895,2.05629 -4.004278,2.69223 -0.884651,0.32512 -1.969744,0.36706 -2.717009,0.10502 z M 99.669489,96.752359 c 0.110716,-0.179135 -0.229378,-0.303499 -1.968746,-0.71993 -2.139924,-0.512328 -2.478249,-0.569682 -2.428535,-0.411698 0.05346,0.169972 1.256543,0.541624 2.659866,0.82169 0.678522,0.135415 1.269338,0.281878 1.312942,0.325475 0.10868,0.108684 0.353237,0.09973 0.424473,-0.01554 z m 2.173661,-0.274585 c 0,-0.182313 -0.47497,-0.457646 -2.922217,-1.69398 -2.336296,-1.180279 -3.083773,-1.503822 -3.290756,-1.424394 -0.192268,0.07378 -0.149689,0.248906 0.104543,0.429933 0.648622,0.461859 3.983528,1.987721 4.34434,1.987721 0.0825,0 0.25022,0.09609 0.3728,0.21354 0.46239,0.442999 1.39129,0.768265 1.39129,0.48718 z"
       id="path8165" />
    <path
       style="fill:#a0a0a0;stroke:none;stroke-width:0.0823158"
       d="m 72.161232,101.1617 c -1.382016,-0.238 -3.645856,-0.94784 -4.474214,-1.402919 -0.297031,-0.163183 -1.07717,-0.638013 -1.733642,-1.055177 -1.767353,-1.123096 -2.241877,-1.386186 -4.339138,-2.405748 -1.195118,-0.580994 -1.956432,-0.998941 -2.032602,-1.115864 -0.06698,-0.102817 -0.218625,-0.724051 -0.336984,-1.380521 -0.118359,-0.65647 -0.363435,-1.878863 -0.544614,-2.716428 -0.406802,-1.880585 -0.563216,-2.955835 -0.565173,-3.885216 -0.0014,-0.719792 0.181979,-2.363398 0.315226,-2.823539 0.04569,-0.157763 0.03116,-0.482469 -0.0402,-0.899097 -0.09769,-0.570284 -0.09622,-0.669263 0.01167,-0.788483 0.06786,-0.07498 0.123381,-0.196939 0.123381,-0.27101 0,-0.07407 0.07007,-0.172177 0.155715,-0.218012 0.08564,-0.04584 0.266136,-0.278652 0.401096,-0.517371 0.355864,-0.629463 2.554007,-2.726494 4.011727,-3.827195 2.092063,-1.579681 4.238305,-2.700322 5.432856,-2.836718 0.726828,-0.08299 2.380559,0.03019 3.075683,0.210508 0.956218,0.24804 2.089366,1.243229 2.948658,2.589661 0.250367,0.392305 0.557202,0.864495 0.68186,1.049312 0.124645,0.184818 0.384121,0.740451 0.576601,1.234741 l 0.34996,0.898708 -0.04984,1.028951 c -0.02745,0.565922 -0.126392,1.38085 -0.219956,1.810951 -0.527501,2.424962 -0.919023,5.149162 -1.194865,8.313917 -0.486588,5.582597 -0.925469,8.372659 -1.399406,8.896349 -0.176681,0.19524 -0.487593,0.22493 -1.153793,0.1102 z m 1.365217,-20.565603 c 0,-0.160351 -0.72798,-0.608171 -2.093342,-1.287726 -1.10334,-0.549145 -1.363931,-0.645795 -1.363931,-0.505871 0,0.176696 2.967643,1.910726 3.270044,1.910726 0.107041,0 0.187229,-0.05017 0.187229,-0.117129 z M 70.924311,79.85466 c -0.134417,-0.350284 -1.937395,-0.50187 -2.026571,-0.170384 -0.02795,0.103915 0.886053,0.267526 1.559855,0.279221 0.412422,0.0072 0.503113,-0.01399 0.466716,-0.108837 z m -1.889039,-1.172702 c 0.773862,-0.183124 1.025169,-0.207189 1.786725,-0.171093 0.487411,0.02311 0.90579,0.02242 0.92973,-0.0015 0.02394,-0.02394 -0.02072,-0.09279 -0.09924,-0.152998 -0.124935,-0.09579 -0.127347,-0.119794 -0.0193,-0.19209 0.06791,-0.04544 0.253123,-0.08375 0.411581,-0.08514 0.306992,-0.0027 0.567093,-0.118874 0.474159,-0.211808 -0.07634,-0.07634 -2.440227,0.169435 -4.458099,0.463507 -1.823278,0.265715 -2.12309,0.330291 -2.168699,0.467115 -0.08572,0.257148 1.871577,0.184932 3.14315,-0.11597 z m 4.470598,0.01 c 0.198464,-0.06067 0.09996,-0.194325 -0.20579,-0.279238 -0.393525,-0.109287 -0.772271,-0.109742 -1.057574,-0.0013 -0.584686,0.222297 0.596096,0.484468 1.263364,0.280507 z"
       id="path8204" />
    <path
       style="fill:#a0a0a0;stroke:none;stroke-width:0.0823158"
       d="m 102.58399,124.99733 c -0.6157,-0.12734 -1.66073,-0.69409 -2.12809,-1.15414 -0.786397,-0.77409 -1.129133,-1.74136 -1.068255,-3.0148 0.03721,-0.77868 0.02246,-0.73744 0.747055,-2.08517 0.20689,-0.38483 0.46812,-0.99603 0.5805,-1.35822 0.11237,-0.36219 0.52225,-1.64014 0.91083,-2.8399 0.38858,-1.19975 0.73011,-2.31102 0.75895,-2.46948 0.11201,-0.61524 0.57029,-1.90277 1.07288,-3.01421 0.28903,-0.63916 0.52551,-1.19976 0.52551,-1.24577 0,-0.046 0.29271,-0.426 0.65048,-0.84441 0.78179,-0.91431 1.01956,-1.38294 1.65759,-3.267 0.58049,-1.71413 0.74607,-2.03589 1.21826,-2.36719 0.70113,-0.49194 1.16877,-0.35548 4.66691,1.36187 1.97455,0.96937 2.37288,1.28469 3.20845,2.53982 1.33027,1.99822 2.13311,4.44935 2.08054,6.35202 -0.0215,0.77892 -0.038,0.85596 -0.1882,0.88313 -0.23453,0.0424 -0.52425,0.33051 -0.71698,0.71301 -0.22021,0.43701 -0.43435,0.66378 -0.92934,0.98417 -0.29322,0.18979 -0.5181,0.43664 -0.782,0.85841 -1.97559,3.15744 -3.45951,5.03769 -5.89578,7.47045 -1.44544,1.44337 -2.33135,1.99453 -3.7509,2.33358 -0.79435,0.18972 -2.09863,0.27133 -2.61841,0.16383 z m 10.83883,-15.19573 c -0.0302,-0.18621 -0.22772,-0.53331 -0.52525,-0.92309 -0.5968,-0.78183 -2.45688,-2.7089 -2.53793,-2.62931 -0.089,0.0874 0.12905,0.39171 1.19594,1.66946 0.52924,0.63384 1.11773,1.38394 1.30778,1.6669 0.39996,0.59552 0.63582,0.6866 0.55946,0.21604 z m 1.24733,-1.37412 c 0.0177,-0.0932 -0.13859,-0.32626 -0.41422,-0.61737 -0.24352,-0.25721 -0.65983,-0.74547 -0.92515,-1.08503 -0.6714,-0.85928 -0.95933,-1.15242 -1.13196,-1.15242 -0.11096,0 -0.14848,0.0641 -0.14848,0.25349 0,0.23883 -0.0143,0.25035 -0.24695,0.19925 -0.1776,-0.039 -0.24718,-0.0235 -0.24777,0.0552 -0.001,0.15283 1.84704,1.94443 2.34526,2.27347 0.438,0.28926 0.72293,0.31646 0.76927,0.0734 z m -4.95014,-2.41327 c 0.0798,-0.20785 -0.0806,-0.38751 -0.4771,-0.5345 -0.58608,-0.21728 -0.99747,-0.26035 -1.18381,-0.12395 -0.16318,0.11945 -0.16318,0.12012 0,0.30341 0.38056,0.42745 1.53817,0.67491 1.66091,0.35504 z m 1.1779,-1.61108 c 0,-0.15815 -0.59428,-0.72374 -0.76045,-0.72374 -0.12295,0 -0.13527,0.0291 -0.0666,0.15724 0.22818,0.42635 0.82711,0.83657 0.82711,0.5665 z"
       id="path8243" />
    <path
       style="fill:none;fill-rule:evenodd;stroke:#000000;stroke-width:0.180656px;stroke-linecap:butt;stroke-linejoin:miter;stroke-opacity:1"
       d="m 82.426446,196.80255 -6.14033,0.036"
       id="path8737"
       inkscape:connector-type="polyline"
       inkscape:connector-curvature="0" />
    <path
       style="fill:none;fill-rule:evenodd;stroke:#000000;stroke-width:0.180656px;stroke-linecap:butt;stroke-linejoin:miter;stroke-opacity:1"
       d="m 60.567097,193.10043 7.052231,2.60478"
       id="path8739"
       inkscape:connector-type="polyline"
       inkscape:connector-curvature="0" />
    <path
       style="fill:none;fill-rule:evenodd;stroke:#000000;stroke-width:0.180656px;stroke-linecap:butt;stroke-linejoin:miter;stroke-opacity:1"
       d="m 75.113721,196.72067 -7.494393,-1.01546"
       id="path8741"
       inkscape:connector-type="polyline"
       inkscape:connector-curvature="0" />
    <path
       style="fill:#a0a0a0;stroke:none;stroke-width:0.329265"
       d="m 72.415183,196.13255 c -4.030753,-0.56685 -4.1158,-0.59678 -4.1158,-1.44831 0,-1.11934 -0.597863,-1.34866 -0.854132,-0.32761 -0.118199,0.47095 -0.381838,0.79753 -0.585865,0.72574 -0.204024,-0.0718 -1.583446,-0.55612 -3.065382,-1.07628 -2.673182,-0.9383 -2.692997,-0.95365 -2.513139,-1.94701 0.09971,-0.5507 0.837647,-4.03872 1.639866,-7.75117 0.802217,-3.71245 1.596316,-7.82572 1.764661,-9.14061 0.337367,-2.63504 1.483601,-5.67627 2.139381,-5.67627 0.230933,0 1.759075,-0.67041 3.395869,-1.48978 3.47201,-1.7381 4.7554,-3.03769 7.327964,-7.42049 1.321046,-2.25061 1.940847,-3.00405 2.582798,-3.13966 1.810161,-0.3824 3.149486,-1.00479 3.149486,-1.46358 0,-0.51404 -0.51999,-0.56336 -1.762945,-0.16721 l -0.775165,0.24705 0.70569,-0.95449 c 0.679771,-0.91944 0.774741,-0.94586 2.586111,-0.71939 2.703066,0.33795 4.679166,0.33653 4.679166,-0.003 0,-0.44876 -0.825964,-0.67412 -3.320273,-0.90594 -1.252466,-0.11642 -2.277213,-0.31873 -2.277213,-0.44959 0,-0.13087 0.691071,-0.77635 1.535717,-1.43441 l 1.535725,-1.19647 h -1.012491 c -0.556868,0 -1.945389,0.29035 -3.08559,0.64523 -1.140207,0.35487 -2.113226,0.6051 -2.162264,0.55606 -0.04903,-0.049 0.870612,-1.11727 2.04367,-2.37386 1.173057,-1.25659 2.132877,-2.39213 2.132925,-2.52341 1.84e-4,-0.60963 -5.248469,1.06787 -5.936973,1.89747 -0.693905,0.8361 -1.073977,0.54519 -0.876621,-0.67097 0.219279,-1.35127 0.148262,-1.36709 -3.064225,-0.68283 -1.197417,0.25505 -2.271219,0.33134 -2.437605,0.17318 -0.163563,-0.15548 -0.533985,-0.15987 -0.823161,-0.01 -0.289172,0.1501 -1.706037,0.67699 -3.148586,1.17084 -2.062522,0.70611 -3.06081,0.87003 -4.673116,0.76737 -1.93586,-0.12327 -2.202969,-0.24811 -4.785621,-2.2367 -12.060328,-9.28615 -15.567701,-13.26625 -17.850881,-20.2568 -0.979417,-2.99873 -1.031233,-3.4554 -0.392064,-3.4554 0.437259,0 1.184634,-1.57837 1.184634,-2.50181 0,-0.34374 -0.219144,-0.3364 -1.113624,0.0374 -1.112615,0.46488 -1.113809,0.46438 -1.317057,-0.55186 -0.310819,-1.5541 -0.23983,-3.91681 0.161643,-5.3799 0.87971,-3.20595 4.427362,-10.07762 7.766932,-15.044262 1.910613,-2.841486 3.663972,-5.239299 3.896356,-5.328471 1.107507,-0.424991 5.05529,1.059514 12.162874,4.573672 4.20592,2.079511 8.031705,3.780921 8.501741,3.780921 1.009559,0 1.879745,1.07864 1.879745,2.33003 0,1.68581 -3.185826,4.13145 -7.090004,5.44273 -3.74484,1.25776 -5.777869,0.75444 -10.729167,-2.65625 -1.456238,-1.00313 -2.721747,-1.82387 -2.812245,-1.82387 -0.0905,0 -0.06691,0.44451 0.05241,0.98779 0.239415,1.09006 -0.0051,1.21208 -0.968407,0.48343 -0.351531,-0.26589 -0.758994,-0.48343 -0.905478,-0.48343 -0.454229,0 -0.29293,1.46182 0.246236,2.23159 0.287297,0.41017 0.359652,0.73179 0.164631,0.73179 -0.588816,0 -0.385697,1.06979 0.35227,1.85532 l 0.700204,0.74533 -0.78252,0.1715 c -0.430385,0.0943 -1.152941,0.21298 -1.60568,0.26368 -0.457685,0.0513 -0.823159,0.3044 -0.823159,0.57017 0,0.59906 2.411089,2.29512 3.283588,2.30981 0.58253,0.01 0.565559,0.0668 -0.164633,0.55301 -1.282639,0.85404 -1.637267,1.46567 -1.637267,2.82384 0,1.63784 0.494697,1.80486 2.795828,0.94389 1.011213,-0.37834 1.907098,-0.68789 1.990852,-0.68789 0.08375,0 0.152279,1.37797 0.152279,3.06215 0,1.94266 0.144453,3.2066 0.395117,3.45727 0.598961,0.59897 0.921939,0.47636 0.921939,-0.34996 0,-0.45384 0.28685,-0.87213 0.733842,-1.07011 0.450616,-0.19958 0.870454,-0.81681 1.087805,-1.59925 0.379093,-1.36468 1.211844,-2.18305 2.221428,-2.18305 1.136396,0 5.979399,2.33231 7.151903,3.44425 1.274417,1.20858 2.351616,1.8104 5.04247,2.81718 0.99191,0.37111 2.694387,1.25059 3.783283,1.95438 1.596623,1.03195 2.255418,1.7468 3.403724,3.69339 1.420414,2.40786 1.423678,2.42085 1.329431,5.29484 -0.103382,3.15268 0.236903,3.66365 1.156131,1.73601 0.650855,-1.36485 1.278795,-1.08899 1.616301,0.71007 0.193921,1.03369 1.222232,2.41056 1.800315,2.41056 0.124979,0 0.419503,-0.46419 0.654508,-1.03153 0.834363,-2.01433 1.882844,-2.91962 3.381383,-2.91962 1.636478,0 4.556584,1.38844 5.647986,2.6855 0.730196,0.86779 2.704384,2.24966 3.217594,2.25222 0.468098,0.002 0.244701,-1.0129 -0.581755,-2.64383 l -0.82871,-1.63537 h 0.781358 c 0.429751,0 1.485142,-0.53738 2.345315,-1.19417 1.52368,-1.16341 1.62276,-1.18996 3.84698,-1.03082 1.25567,0.0898 2.24009,0.0709 2.18762,-0.0421 -0.0525,-0.113 -0.3829,-0.92966 -0.73427,-1.81481 l -0.63886,-1.60937 0.96812,-0.77462 c 1.2234,-0.97889 2.17903,-0.9742 4.3169,0.0212 1.67217,0.77857 2.72472,1.93298 2.10923,2.31337 -0.1881,0.11625 -0.18844,0.59859 -6.8e-4,1.25255 0.44582,1.55446 0.36166,2.29061 -0.361,3.15792 l -0.6441,0.77304 -0.9829,-0.82706 c -1.2426,-1.04557 -3.09482,-1.66618 -4.16852,-1.3967 -1.04477,0.26223 -0.86211,0.8942 0.35232,1.21898 1.74662,0.46712 3.46718,2.85106 2.81699,3.9031 -0.20289,0.32826 -0.48387,0.26499 -1.25194,-0.28193 -0.5446,-0.38786 -1.33083,-0.7052 -1.7471,-0.7052 -0.70897,0 -0.6801,0.0786 0.45645,1.24252 1.14109,1.16858 1.19372,1.31341 0.88435,2.43385 -0.47897,1.73465 -1.02553,2.07146 -2.05169,1.26428 -0.82491,-0.64887 -1.55862,-0.86171 -1.55862,-0.45213 0,0.11445 0.30858,0.70738 0.68574,1.31763 l 0.68573,1.10955 -1.05387,1.33063 c -1.14921,1.451 -3.74315,2.94865 -5.107084,2.94865 -1.346727,0 -6.329376,-2.33861 -7.892214,-3.70422 -0.777193,-0.67911 -1.653438,-1.23474 -1.947218,-1.23474 -0.49106,0 -0.491668,0.0821 -0.0075,1.01839 0.655361,1.26733 0.424494,1.54283 -0.684155,0.81642 -1.317141,-0.86303 -1.649253,-0.44981 -0.620805,0.77243 l 0.926063,1.10056 -0.806252,-0.25277 c -0.443442,-0.13901 -0.991468,-0.32236 -1.217835,-0.40743 -0.226368,-0.0851 -0.411583,-0.0179 -0.411583,0.14927 0,0.16717 0.889014,0.72886 1.975588,1.2482 1.922344,0.91879 2.485234,1.48169 1.481688,1.48169 -0.83114,0 -0.553058,0.47691 0.65853,1.12939 1.461149,0.78689 1.506971,1.31826 0.08231,0.95466 -1.731476,-0.4419 -5.213489,-0.23256 -7.13965,0.42924 -2.614802,0.8984 -2.485521,1.34679 0.378405,1.31243 3.529421,-0.0423 6.785812,1.0541 8.841506,2.97696 2.219339,2.07593 3.375586,4.04358 4.515917,7.68493 0.904431,2.88807 0.992492,3.61419 1.14793,9.46634 0.140069,5.27319 0.09143,6.33833 -0.289444,6.33833 -0.622853,0 -0.583306,0.42529 0.33246,3.5752 l 0.790261,2.71821 -1.844621,0.81579 c -2.246754,0.99362 -2.722895,0.93201 -3.357806,-0.43448 -0.572886,-1.23298 -0.842953,-1.33738 -1.083195,-0.4187 -0.119147,0.45563 -0.449122,0.65853 -1.070951,0.65853 -0.869937,0 -0.892504,0.0455 -0.704148,1.41969 l 0.194591,1.41969 -1.598515,0.32746 -1.598507,0.32745 -0.714191,-2.81725 c -0.929081,-3.6649 -1.995936,-6.62827 -2.448916,-6.80224 -0.234322,-0.09 -0.371448,-1.71915 -0.39241,-4.66196 l -0.03223,-4.52362 0.454694,2.46948 c 0.250074,1.35821 0.489401,3.19884 0.531844,4.09027 0.04889,1.0266 0.243021,1.67609 0.529597,1.77161 0.342593,0.1142 0.402693,-0.0795 0.247541,-0.79764 -0.112702,-0.52164 -0.302301,-3.68957 -0.421326,-7.03983 -0.151513,-4.26431 -0.358072,-6.37188 -0.688675,-7.02658 -0.259743,-0.51435 -0.387589,-1.15584 -0.284098,-1.42553 0.103491,-0.26969 0.09915,-0.84501 -0.0096,-1.27848 -0.188944,-0.75281 -0.239867,-0.7664 -1.135777,-0.3031 -0.515886,0.26677 -1.182234,0.48504 -1.480773,0.48504 -1.090206,0 -2.803813,-1.09419 -3.768959,-2.40658 l -0.98918,-1.34506 v 1.26164 c 0,0.69391 0.148372,2.16774 0.329716,3.27519 1.712288,10.45688 2.441828,14.21616 2.83516,14.60949 0.251364,0.25137 0.45905,0.63165 0.461522,0.84509 0.0027,0.21343 0.09384,0.72144 0.203036,1.1289 0.143688,0.53618 0.05688,0.74085 -0.314325,0.74085 -0.282077,0 -0.58926,0.1236 -0.682625,0.27467 -0.09337,0.15107 0.120145,2.33229 0.474468,4.84715 0.354316,2.51487 0.644218,4.76197 0.644218,4.99356 0,0.30863 -0.741455,0.42106 -2.776556,0.42106 -3.186616,0 -2.989445,0.21003 -3.342949,-3.5608 -0.286091,-3.05169 -0.742035,-2.66212 -1.014136,0.86651 -0.11428,1.48186 -0.296941,2.67623 -0.405922,2.65415 -0.108975,-0.0221 -1.087153,-0.16518 -2.173726,-0.31798 z m -2.838876,-87.52359 c 0.702705,-0.44508 0.116386,-1.01877 -1.049408,-1.02679 -1.330829,-0.009 -3.599012,-1.02948 -4.67053,-2.101 -1.02182,-1.02182 -1.071902,-2.4283 -0.129144,-3.62683 0.886629,-1.12716 0.614204,-1.40721 -0.645213,-0.66325 -1.219141,0.72016 -1.697174,1.72954 -1.697174,3.58363 0,1.39634 0.04868,1.46223 1.817487,2.46049 2.534292,1.43026 5.332581,2.03337 6.373982,1.37375 z"
       id="path8897" />
  </g>
</svg>
